# xmcd
#
# Track frame offsets:
#	150
#	14944
#	32153
#	50085
#	65842
#	83280
#	100915
#	116225
#	136223
#	150554
#	166275
#
# Disc length: 2413 seconds
#
# Revision: 0
# Processed by: cddbd v1.5.2PL0 Copyright (c) Steve Scherf et al.
# Submitted via: EasyCDDAExtractor 15.3.0.1
#
DISCID=94096b0b
DTITLE=Anahi - Mi Delirio
DYEAR=2009
DGENRE=Latin
TTITLE0=Mi Delirio
TTITLE1=Quiero
TTITLE2=Que Mas Da
TTITLE3=Hasta Que Llegues Tu
TTITLE4=No Te Quiero Olvidar
TTITLE5=Me Hipnotizas
TTITLE6=Para Que
TTITLE7=Te Puedo Escuchar
TTITLE8=El Me Mintio
TTITLE9=Gira La Vida
TTITLE10=Hasta Que Me Conociste
EXTD=
EXTT0=
EXTT1=
EXTT2=
EXTT3=
EXTT4=
EXTT5=
EXTT6=
EXTT7=
EXTT8=
EXTT9=
EXTT10=
PLAYORDER=
